# xmcd CD database file
#
# Track frame offsets:
#	150
#	17287
#	40417
#
# Disc length: 764 seconds
#
# Revision: 0
# Processed by: cddbd v1.5PL3 Copyright (c) Steve Scherf et al.
# Submitted via: CDex 1.50
#
DISCID=1702fa03
DTITLE=THE CHECKERS - 今夜の涙は最高
DYEAR=1992
DGENRE=JPop
TTITLE0=今夜の涙は最高
TTITLE1=今夜は何処へ送りましょうか
TTITLE2=今夜の涙は最高 (オリジナル カラオケ)
EXTD=YEAR: 1992
EXTT0=
EXTT1=
EXTT2=
PLAYORDER=
